<svg xmlns="http://www.w3.org/2000/svg" width="940" height="720" viewBox="0 0 940 720" font-family="Arial, Helvetica, sans-serif">
  <style>
    .page{fill:#fff;stroke:#c9c9c9;stroke-width:1}
    .lbl{fill:#555;font-size:11px}
    .h{fill:#1a2b3c;font-weight:bold}
    .muted{fill:#999;font-size:10px}
    .grid{stroke:#f2cccc;stroke-width:1}
    .ecg{fill:none;stroke:#111;stroke-width:1.1}
    .rule{stroke:#e2e2e2;stroke-width:1}
    .kv{font-size:11px}
    .tag{font-size:10px;font-weight:bold}
    .sec{fill:#1a6ebd;font-size:12px;font-weight:bold}
  </style>

  <rect x="0" y="0" width="940" height="720" fill="#fafafa"/>
  <text x="24" y="30" class="h" font-size="19">Structured Report  —  FULL tier (summary + strips + trends + full disclosure)</text>
  <text x="24" y="48" class="muted">Multi-section PDF. Analysis runs over the whole recording; only summary + representative strips are printed.</text>

  <!-- ================= PAGE 1: SUMMARY ================= -->
  <rect x="24" y="64" width="288" height="632" class="page"/>
  <text x="40" y="92" class="h" font-size="14">Single-Lead ECG Report</text>
  <line x1="40" y1="100" x2="296" y2="100" class="rule"/>
  <text x="40" y="120" class="sec">1 · Summary</text>

  <text x="40" y="142" class="lbl">Record: FX_2026-08-11.csv</text>
  <text x="40" y="158" class="lbl">Duration: 30 min 05 s · 500 Hz</text>

  <!-- stats table -->
  <g class="kv" fill="#222">
    <rect x="40" y="172" width="256" height="150" fill="#f7f9fb" stroke="#e2e2e2"/>
    <text x="52" y="192">Heart rate (min / avg / max)</text><text x="250" y="192">48 / 78 / 141</text>
    <line x1="52" y1="200" x2="284" y2="200" class="rule"/>
    <text x="52" y="218">Total beats</text><text x="250" y="218">2364</text>
    <line x1="52" y1="226" x2="284" y2="226" class="rule"/>
    <text x="52" y="244">PVC burden</text><text x="250" y="244" fill="#b22222">58 (2.5%)</text>
    <line x1="52" y1="252" x2="284" y2="252" class="rule"/>
    <text x="52" y="270">PAC burden</text><text x="250" y="270" fill="#b8860b">31 (1.3%)</text>
    <line x1="52" y1="278" x2="284" y2="278" class="rule"/>
    <text x="52" y="296">Rhythm (RhythmCNN)</text><text x="250" y="296" fill="#1a6ebd">AF 90%</text>
    <line x1="52" y1="304" x2="284" y2="304" class="rule"/>
    <text x="52" y="322">AF burden / longest pause</text><text x="250" y="322">61% / 2.1 s</text>
  </g>

  <!-- narrative -->
  <text x="40" y="352" class="sec">Findings (LLM narrative)</text>
  <g class="rule">
    <line x1="40" y1="366" x2="296" y2="366"/><line x1="40" y1="382" x2="296" y2="382"/>
    <line x1="40" y1="398" x2="296" y2="398"/><line x1="40" y1="414" x2="280" y2="414"/>
    <line x1="40" y1="430" x2="296" y2="430"/><line x1="40" y1="446" x2="268" y2="446"/>
  </g>

  <!-- mini HR trend -->
  <text x="40" y="474" class="sec">Heart-rate trend</text>
  <rect x="40" y="482" width="256" height="70" fill="#fff" stroke="#e2e2e2"/>
  <polyline points="48,540 78,528 108,545 138,500 168,548 198,512 228,550 258,506 288,545"
            fill="none" stroke="#1a6ebd" stroke-width="1.4"/>

  <text x="40" y="576" class="sec">Ectopy per minute</text>
  <rect x="40" y="584" width="256" height="70" fill="#fff" stroke="#e2e2e2"/>
  <g>
    <rect x="52" y="626" width="8" height="24" fill="#b22222"/><rect x="64" y="618" width="8" height="32" fill="#b22222"/>
    <rect x="76" y="636" width="8" height="14" fill="#b8860b"/><rect x="88" y="624" width="8" height="26" fill="#b22222"/>
    <rect x="100" y="640" width="8" height="10" fill="#b8860b"/><rect x="112" y="614" width="8" height="36" fill="#b22222"/>
    <rect x="124" y="632" width="8" height="18" fill="#b8860b"/><rect x="136" y="622" width="8" height="28" fill="#b22222"/>
    <rect x="148" y="638" width="8" height="12" fill="#b8860b"/><rect x="160" y="616" width="8" height="34" fill="#b22222"/>
    <rect x="172" y="634" width="8" height="16" fill="#b8860b"/><rect x="184" y="626" width="8" height="24" fill="#b22222"/>
    <rect x="196" y="640" width="8" height="10" fill="#b8860b"/><rect x="208" y="620" width="8" height="30" fill="#b22222"/>
    <rect x="220" y="636" width="8" height="14" fill="#b8860b"/><rect x="232" y="628" width="8" height="22" fill="#b22222"/>
    <rect x="244" y="642" width="8" height="8" fill="#b8860b"/><rect x="256" y="618" width="8" height="32" fill="#b22222"/>
    <rect x="268" y="634" width="8" height="16" fill="#b8860b"/><rect x="280" y="626" width="8" height="24" fill="#b22222"/>
  </g>
  <text x="40" y="688" class="muted">Research use only. Not an FDA-cleared diagnostic.</text>

  <!-- ================= PAGE 2: REPRESENTATIVE STRIPS ================= -->
  <rect x="326" y="64" width="288" height="632" class="page"/>
  <text x="342" y="92" class="sec">2 · Representative strips</text>
  <text x="342" y="108" class="muted">auto-selected 10 s windows around key events</text>

  <!-- strip helper: 3 strips -->
  <!-- strip 1 normal -->
  <text x="342" y="132" class="tag" fill="#222">Normal sinus — 00:45</text>
  <rect x="342" y="138" width="256" height="120" fill="#fff" stroke="#e2e2e2"/>
  <g class="grid">
    <line x1="342" y1="168" x2="598" y2="168"/><line x1="342" y1="198" x2="598" y2="198"/><line x1="342" y1="228" x2="598" y2="228"/>
    <line x1="384" y1="138" x2="384" y2="258"/><line x1="426" y1="138" x2="426" y2="258"/><line x1="468" y1="138" x2="468" y2="258"/>
    <line x1="510" y1="138" x2="510" y2="258"/><line x1="552" y1="138" x2="552" y2="258"/><line x1="594" y1="138" x2="594" y2="258"/>
  </g>
  <path class="ecg" d="M346 198 h26 l6 -3 l5 30 l5 -60 l5 36 l6 -3 h30 l6 -3 l5 30 l5 -60 l5 36 l6 -3 h30
     l6 -3 l5 30 l5 -60 l5 36 l6 -3 h30 l6 -3 l5 30 l5 -60 l5 36 l6 -3 h20"/>

  <!-- strip 2 worst PVC -->
  <text x="342" y="284" class="tag" fill="#b22222">Worst PVC run (bigeminy) — 14:12</text>
  <rect x="342" y="290" width="256" height="120" fill="#fff" stroke="#e2e2e2"/>
  <g class="grid">
    <line x1="342" y1="320" x2="598" y2="320"/><line x1="342" y1="350" x2="598" y2="350"/><line x1="342" y1="380" x2="598" y2="380"/>
    <line x1="384" y1="290" x2="384" y2="410"/><line x1="426" y1="290" x2="426" y2="410"/><line x1="468" y1="290" x2="468" y2="410"/>
    <line x1="510" y1="290" x2="510" y2="410"/><line x1="552" y1="290" x2="552" y2="410"/><line x1="594" y1="290" x2="594" y2="410"/>
  </g>
  <path class="ecg" d="M346 350 h20 l5 -3 l4 26 l4 -52 l4 30 l5 -3 h14
     l6 22 l9 -74 l9 74 l6 -22 h14
     l5 -3 l4 26 l4 -52 l4 30 l5 -3 h14
     l6 22 l9 -74 l9 74 l6 -22 h14
     l5 -3 l4 26 l4 -52 l4 30 l5 -3 h14"/>
  <line x1="404" y1="298" x2="414" y2="308" stroke="#b22222" stroke-width="2"/><line x1="414" y1="298" x2="404" y2="308" stroke="#b22222" stroke-width="2"/>
  <line x1="486" y1="298" x2="496" y2="308" stroke="#b22222" stroke-width="2"/><line x1="496" y1="298" x2="486" y2="308" stroke="#b22222" stroke-width="2"/>

  <!-- strip 3 PAC -->
  <text x="342" y="436" class="tag" fill="#b8860b">Atrial ectopy (PAC) — 22:37</text>
  <rect x="342" y="442" width="256" height="120" fill="#fff" stroke="#e2e2e2"/>
  <g class="grid">
    <line x1="342" y1="472" x2="598" y2="472"/><line x1="342" y1="502" x2="598" y2="502"/><line x1="342" y1="532" x2="598" y2="532"/>
    <line x1="384" y1="442" x2="384" y2="562"/><line x1="426" y1="442" x2="426" y2="562"/><line x1="468" y1="442" x2="468" y2="562"/>
    <line x1="510" y1="442" x2="510" y2="562"/><line x1="552" y1="442" x2="552" y2="562"/><line x1="594" y1="442" x2="594" y2="562"/>
  </g>
  <path class="ecg" d="M346 502 h26 l6 -3 l5 26 l5 -52 l5 30 l6 -3 h24
     l5 -3 l5 24 l5 -48 l5 28 l5 -3 h10
     l6 -3 l5 26 l5 -52 l5 30 l6 -3 h30 l6 -3 l5 26 l5 -52 l5 30 l6 -3 h20"/>
  <path d="M452 450 l5 9 l-10 0 z" fill="#b8860b"/>

  <text x="342" y="588" class="muted">+ one strip per additional flagged event (configurable)</text>

  <!-- ================= PAGE 3: TRENDS + FULL DISCLOSURE ================= -->
  <rect x="628" y="64" width="288" height="632" class="page"/>
  <text x="644" y="92" class="sec">3 · Trends &amp; full disclosure</text>

  <text x="644" y="118" class="tag" fill="#222">Poincaré (RR) plot</text>
  <rect x="644" y="124" width="120" height="120" fill="#fff" stroke="#e2e2e2"/>
  <g fill="#1a6ebd" fill-opacity="0.5">
    <circle cx="690" cy="190" r="2.2"/><circle cx="696" cy="186" r="2.2"/><circle cx="700" cy="196" r="2.2"/>
    <circle cx="686" cy="196" r="2.2"/><circle cx="704" cy="188" r="2.2"/><circle cx="694" cy="200" r="2.2"/>
    <circle cx="710" cy="182" r="2.2"/><circle cx="682" cy="188" r="2.2"/><circle cx="716" cy="176" r="2.2"/>
    <circle cx="676" cy="200" r="2.2"/><circle cx="720" cy="200" r="2.2"/><circle cx="700" cy="176" r="2.2"/>
    <circle cx="730" cy="168" r="2.2"/><circle cx="668" cy="210" r="2.2"/><circle cx="742" cy="158" r="2.2"/>
  </g>

  <text x="780" y="118" class="tag" fill="#222">HR histogram</text>
  <rect x="780" y="124" width="120" height="120" fill="#fff" stroke="#e2e2e2"/>
  <g fill="#1a6ebd">
    <rect x="792" y="216" width="10" height="20"/><rect x="806" y="200" width="10" height="36"/>
    <rect x="820" y="176" width="10" height="60"/><rect x="834" y="160" width="10" height="76"/>
    <rect x="848" y="184" width="10" height="52"/><rect x="862" y="208" width="10" height="28"/>
    <rect x="876" y="222" width="10" height="14"/>
  </g>

  <!-- full disclosure: 60s/line compressed rows -->
  <text x="644" y="272" class="tag" fill="#222">Full disclosure — 60 s / line (appendix)</text>
  <rect x="644" y="280" width="256" height="384" fill="#fff" stroke="#e2e2e2"/>
  <g class="ecg" stroke-width="0.8">
    <path d="M650 300 q4 -8 8 0 t8 0 t8 0 t8 0 t8 0 t8 0 t8 0 t8 0 t8 0 t8 0 t8 0 t8 0 t8 0 t8 0 t8 0 t8 0 t8 0 t8 0 t8 0 t8 0 t8 0 t8 0 t8 0 t8 0 t8 0 t8 0 t8 0 t8 0 t8 0"/>
    <path d="M650 322 q4 -8 8 0 t8 0 t8 0 t8 0 t8 0 t8 0 t8 0 t8 0 t8 0 t8 0 t8 0 t8 0 t8 0 t8 0 t8 0 t8 0 t8 0 t8 0 t8 0 t8 0 t8 0 t8 0 t8 0 t8 0 t8 0 t8 0 t8 0 t8 0 t8 0"/>
    <path d="M650 344 q4 -8 8 0 t8 0 t8 0 t8 0 t8 0 t8 0 t8 0 t8 0 t8 0 t8 0 t8 0 t8 0 t8 0 t8 0 t8 0 t8 0 t8 0 t8 0 t8 0 t8 0 t8 0 t8 0 t8 0 t8 0 t8 0 t8 0 t8 0 t8 0 t8 0"/>
    <path d="M650 366 q4 -8 8 0 t8 0 t8 0 t8 0 t8 0 t8 0 t8 0 t8 0 t8 0 t8 0 t8 0 t8 0 t8 0 t8 0 t8 0 t8 0 t8 0 t8 0 t8 0 t8 0 t8 0 t8 0 t8 0 t8 0 t8 0 t8 0 t8 0 t8 0 t8 0"/>
    <path d="M650 388 q4 -8 8 0 t8 0 t8 0 t8 0 t8 0 t8 0 t8 0 t8 0 t8 0 t8 0 t8 0 t8 0 t8 0 t8 0 t8 0 t8 0 t8 0 t8 0 t8 0 t8 0 t8 0 t8 0 t8 0 t8 0 t8 0 t8 0 t8 0 t8 0 t8 0"/>
    <path d="M650 410 q4 -8 8 0 t8 0 t8 0 t8 0 t8 0 t8 0 t8 0 t8 0 t8 0 t8 0 t8 0 t8 0 t8 0 t8 0 t8 0 t8 0 t8 0 t8 0 t8 0 t8 0 t8 0 t8 0 t8 0 t8 0 t8 0 t8 0 t8 0 t8 0 t8 0"/>
    <path d="M650 432 q4 -8 8 0 t8 0 t8 0 t8 0 t8 0 t8 0 t8 0 t8 0 t8 0 t8 0 t8 0 t8 0 t8 0 t8 0 t8 0 t8 0 t8 0 t8 0 t8 0 t8 0 t8 0 t8 0 t8 0 t8 0 t8 0 t8 0 t8 0 t8 0 t8 0"/>
    <path d="M650 454 q4 -8 8 0 t8 0 t8 0 t8 0 t8 0 t8 0 t8 0 t8 0 t8 0 t8 0 t8 0 t8 0 t8 0 t8 0 t8 0 t8 0 t8 0 t8 0 t8 0 t8 0 t8 0 t8 0 t8 0 t8 0 t8 0 t8 0 t8 0 t8 0 t8 0"/>
    <path d="M650 476 q4 -8 8 0 t8 0 t8 0 t8 0 t8 0 t8 0 t8 0 t8 0 t8 0 t8 0 t8 0 t8 0 t8 0 t8 0 t8 0 t8 0 t8 0 t8 0 t8 0 t8 0 t8 0 t8 0 t8 0 t8 0 t8 0 t8 0 t8 0 t8 0 t8 0"/>
    <path d="M650 498 q4 -8 8 0 t8 0 t8 0 t8 0 t8 0 t8 0 t8 0 t8 0 t8 0 t8 0 t8 0 t8 0 t8 0 t8 0 t8 0 t8 0 t8 0 t8 0 t8 0 t8 0 t8 0 t8 0 t8 0 t8 0 t8 0 t8 0 t8 0 t8 0 t8 0"/>
    <path d="M650 520 q4 -8 8 0 t8 0 t8 0 t8 0 t8 0 t8 0 t8 0 t8 0 t8 0 t8 0 t8 0 t8 0 t8 0 t8 0 t8 0 t8 0 t8 0 t8 0 t8 0 t8 0 t8 0 t8 0 t8 0 t8 0 t8 0 t8 0 t8 0 t8 0 t8 0"/>
    <path d="M650 542 q4 -8 8 0 t8 0 t8 0 t8 0 t8 0 t8 0 t8 0 t8 0 t8 0 t8 0 t8 0 t8 0 t8 0 t8 0 t8 0 t8 0 t8 0 t8 0 t8 0 t8 0 t8 0 t8 0 t8 0 t8 0 t8 0 t8 0 t8 0 t8 0 t8 0"/>
    <path d="M650 564 q4 -8 8 0 t8 0 t8 0 t8 0 t8 0 t8 0 t8 0 t8 0 t8 0 t8 0 t8 0 t8 0 t8 0 t8 0 t8 0 t8 0 t8 0 t8 0 t8 0 t8 0 t8 0 t8 0 t8 0 t8 0 t8 0 t8 0 t8 0 t8 0 t8 0"/>
    <path d="M650 586 q4 -8 8 0 t8 0 t8 0 t8 0 t8 0 t8 0 t8 0 t8 0 t8 0 t8 0 t8 0 t8 0 t8 0 t8 0 t8 0 t8 0 t8 0 t8 0 t8 0 t8 0 t8 0 t8 0 t8 0 t8 0 t8 0 t8 0 t8 0 t8 0 t8 0"/>
    <path d="M650 608 q4 -8 8 0 t8 0 t8 0 t8 0 t8 0 t8 0 t8 0 t8 0 t8 0 t8 0 t8 0 t8 0 t8 0 t8 0 t8 0 t8 0 t8 0 t8 0 t8 0 t8 0 t8 0 t8 0 t8 0 t8 0 t8 0 t8 0 t8 0 t8 0 t8 0"/>
    <path d="M650 630 q4 -8 8 0 t8 0 t8 0 t8 0 t8 0 t8 0 t8 0 t8 0 t8 0 t8 0 t8 0 t8 0 t8 0 t8 0 t8 0 t8 0 t8 0 t8 0 t8 0 t8 0 t8 0 t8 0 t8 0 t8 0 t8 0 t8 0 t8 0 t8 0 t8 0"/>
  </g>
  <text x="644" y="684" class="muted">continues across pages — optional, for completeness</text>
</svg>
